# xmcd
#
# Track frame offsets: 
#        150
#        14065
#        23705
#        43890
#        54315
#        71275
#        99690
#        109905
#        126050
#        144975
#        156260
#        164475
#        185520
#        200815
#        214175
#
# Disc length: 2986 seconds
#
# Revision: 1
# Processed by: cddbd v1.5.1PL2 Copyright (c) Steve Scherf et al.
# Submitted via: ExactAudioCopy v0.95a5
#
DISCID=dd0ba80f
DTITLE=Поющие гитары - Поющие гитары
DYEAR=1996
DGENRE=Country
TTITLE0=Аппачи
TTITLE1=Песенка велосипедистов
TTITLE2=Романс
TTITLE3=Торреро
TTITLE4=Проводы
TTITLE5=Саласпилс
TTITLE6=Синяя птица
TTITLE7=Вот это погода
TTITLE8=Сумерки
TTITLE9=Неприметная красота
TTITLE10=Сюрприз
TTITLE11=Не ломай черёмухи
TTITLE12=Нет тебя прекрасней
TTITLE13=А я пою
TTITLE14=Цыганочка
EXTD=
EXTT0=
EXTT1=
EXTT2=
EXTT3=
EXTT4=
EXTT5=
EXTT6=
EXTT7=
EXTT8=
EXTT9=
EXTT10=
EXTT11=
EXTT12=
EXTT13=
EXTT14=
PLAYORDER=
